<?xml version="1.0" encoding="utf-8"?>
<!-- Generator: Adobe Illustrator 21.1.0, SVG Export Plug-In . SVG Version: 6.00 Build 0)  -->
<svg version="1.1" id="Слой_1" xmlns="http://www.w3.org/2000/svg" xmlns:xlink="http://www.w3.org/1999/xlink" x="0px" y="0px"
	 viewBox="0 0 9.3 15" style="enable-background:new 0 0 9.3 15;" xml:space="preserve">
<style type="text/css">
	.st0{fill:#FFFFFF;}
</style>
<path class="st0" d="M0.5,12.4l5.1-4.9L0.5,2.6c-0.6-0.6-0.6-1.5,0-2.1C0.7,0.2,1.1,0,1.6,0l0,0C2,0,2.4,0.2,2.6,0.4l6.3,6.1
	c0.6,0.5,0.6,1.4,0,2c0,0,0,0,0,0l-6.3,6.1C2.4,14.8,2,15,1.6,15l0,0C0.7,15,0,14.4,0,13.5C0,13.1,0.2,12.7,0.5,12.4z"/>
</svg>
