<svg xmlns="http://www.w3.org/2000/svg" viewBox="0 0 19.04 24.42"><title>Asset 2</title><g id="Layer_2" data-name="Layer 2"><g id="Layer_1-2" data-name="Layer 1"><path d="M4.6,16.53a.5.5,0,0,1-.46-.31L0,6a.47.47,0,0,1,0-.47.48.48,0,0,1,.42-.21H.65c2.72,0,4.5-1.42,6.21-2.79,2.12-1.7,4.32-3.45,8-2a.47.47,0,0,1,.29.28L19,10.29a.5.5,0,0,1-.05.46.49.49,0,0,1-.41.23c-2.79,0-5,1.36-7.43,2.77a18.76,18.76,0,0,1-6.43,2.77ZM1.23,6.33l3.68,9.13a19.13,19.13,0,0,0,5.7-2.57c2.2-1.3,4.47-2.64,7.2-2.88L14.33,1.37c-3.06-1.06-4.81.35-6.84,2C5.83,4.66,4,6.14,1.23,6.33Z"/><path d="M7.78,24.42a.48.48,0,0,1-.46-.31L0,6a.5.5,0,0,1,.27-.65A.5.5,0,0,1,1,5.66L8.25,23.74a.51.51,0,0,1-.28.65A.63.63,0,0,1,7.78,24.42Z"/></g></g></svg>