<svg xmlns="http://www.w3.org/2000/svg" width="9.781" height="9.84" viewBox="0 0 9.781 9.84">
  <defs>
    <style>
      .cls-1 {
        fill: #2d2d2d;
        fill-rule: evenodd;
      }
    </style>
  </defs>
  <path id="Фигура_565" data-name="Фигура 565" class="cls-1" d="M568.762,1075.91l2.382-2.41a1.487,1.487,0,0,0,0-2.09,1.45,1.45,0,0,0-2.071,0l-2.381,2.41-2.381-2.41a1.45,1.45,0,0,0-2.071,0,1.487,1.487,0,0,0,0,2.09l2.381,2.41-2.381,2.41a1.5,1.5,0,0,0,0,2.1,1.462,1.462,0,0,0,2.071,0l2.381-2.41,2.381,2.41a1.462,1.462,0,0,0,2.071,0,1.5,1.5,0,0,0,0-2.1Z" transform="translate(-561.813 -1071)"/>
</svg>
