<svg xmlns="http://www.w3.org/2000/svg" width="23" height="24" viewBox="0 0 23 24">
  <metadata><?xpacket begin="﻿" id="W5M0MpCehiHzreSzNTczkc9d"?>
<x:xmpmeta xmlns:x="adobe:ns:meta/" x:xmptk="Adobe XMP Core 5.6-c142 79.160924, 2017/07/13-01:06:39        ">
   <rdf:RDF xmlns:rdf="http://www.w3.org/1999/02/22-rdf-syntax-ns#">
      <rdf:Description rdf:about=""/>
   </rdf:RDF>
</x:xmpmeta>
                                                                                                    
                                                                                                    
                                                                                                    
                                                                                                    
                                                                                                    
                                                                                                    
                                                                                                    
                                                                                                    
                                                                                                    
                                                                                                    
                                                                                                    
                                                                                                    
                                                                                                    
                                                                                                    
                                                                                                    
                                                                                                    
                                                                                                    
                                                                                                    
                                                                                                    
                                                                                                    
                           
<?xpacket end="w"?></metadata>
<defs>
    <style>
      .cls-1 {
        fill: #292929;
        fill-rule: evenodd;
      }
    </style>
  </defs>
  <path id="Фигура_562" data-name="Фигура 562" class="cls-1" d="M42.064,724H26.933A3.991,3.991,0,0,0,23,728.045v19.146a0.8,0.8,0,0,0,.787.809,0.777,0.777,0,0,0,.611-0.3l3.147-3.988h14.52A3.99,3.99,0,0,0,46,739.667V728.045A3.99,3.99,0,0,0,42.064,724Zm2.36,15.667a2.394,2.394,0,0,1-2.36,2.427H27.418a1.3,1.3,0,0,0-1.017.5l-1.836,2.316V728.045a2.394,2.394,0,0,1,2.36-2.427H42.056a2.4,2.4,0,0,1,2.36,2.427ZM34.5,732a0.8,0.8,0,0,0-.787.809v5.474a0.787,0.787,0,1,0,1.573,0V732.81A0.8,0.8,0,0,0,34.5,732Zm0-3.236a0.8,0.8,0,0,0-.787.809v0.62a0.787,0.787,0,1,0,1.573,0v-0.62A0.8,0.8,0,0,0,34.5,728.765Z" transform="translate(-23 -724)"/>
</svg>
