<svg xmlns="http://www.w3.org/2000/svg" width="22" height="22" viewBox="0 0 22 22">
  <metadata><?xpacket begin="﻿" id="W5M0MpCehiHzreSzNTczkc9d"?>
<x:xmpmeta xmlns:x="adobe:ns:meta/" x:xmptk="Adobe XMP Core 5.6-c142 79.160924, 2017/07/13-01:06:39        ">
   <rdf:RDF xmlns:rdf="http://www.w3.org/1999/02/22-rdf-syntax-ns#">
      <rdf:Description rdf:about=""/>
   </rdf:RDF>
</x:xmpmeta>
                                                                                                    
                                                                                                    
                                                                                                    
                                                                                                    
                                                                                                    
                                                                                                    
                                                                                                    
                                                                                                    
                                                                                                    
                                                                                                    
                                                                                                    
                                                                                                    
                                                                                                    
                                                                                                    
                                                                                                    
                                                                                                    
                                                                                                    
                                                                                                    
                                                                                                    
                                                                                                    
                           
<?xpacket end="w"?></metadata>
<defs>
    <style>
      .cls-1 {
        fill: #292929;
        fill-rule: evenodd;
      }
    </style>
  </defs>
  <path id="Фигура_569" data-name="Фигура 569" class="cls-1" d="M40,1126.41a0.638,0.638,0,0,1-.5-0.23c-0.269-.32-6.62-7.99-6.62-12.06a7.119,7.119,0,1,1,14.237,0c0,4.07-6.352,11.74-6.62,12.06A0.639,0.639,0,0,1,40,1126.41Zm0-18.12a5.827,5.827,0,0,0-5.824,5.83c0,2.74,3.831,8.11,5.824,10.62,1.993-2.51,5.824-7.88,5.824-10.62A5.827,5.827,0,0,0,40,1108.29Zm0,9.06a3.235,3.235,0,1,1,3.236-3.23A3.235,3.235,0,0,1,40,1117.35Zm0-5.17a1.94,1.94,0,1,0,1.941,1.94A1.942,1.942,0,0,0,40,1112.18ZM50.352,1129H29.643a0.648,0.648,0,0,1-.647-0.65,0.659,0.659,0,0,1,.068-0.29l2.589-5.17a0.647,0.647,0,0,1,.579-0.36H34.82a0.645,0.645,0,1,1,0,1.29H32.633l-1.941,3.89H49.3l-1.941-3.89H45.175a0.645,0.645,0,1,1,0-1.29h2.589a0.648,0.648,0,0,1,.579.36l2.589,5.17a0.65,0.65,0,0,1-.292.87A0.582,0.582,0,0,1,50.352,1129Z" transform="translate(-29 -1107)"/>
</svg>
