<svg xmlns="http://www.w3.org/2000/svg" width="29" height="22" viewBox="0 0 29 22">
  <metadata><?xpacket begin="﻿" id="W5M0MpCehiHzreSzNTczkc9d"?>
<x:xmpmeta xmlns:x="adobe:ns:meta/" x:xmptk="Adobe XMP Core 5.6-c142 79.160924, 2017/07/13-01:06:39        ">
   <rdf:RDF xmlns:rdf="http://www.w3.org/1999/02/22-rdf-syntax-ns#">
      <rdf:Description rdf:about=""/>
   </rdf:RDF>
</x:xmpmeta>
                                                                                                    
                                                                                                    
                                                                                                    
                                                                                                    
                                                                                                    
                                                                                                    
                                                                                                    
                                                                                                    
                                                                                                    
                                                                                                    
                                                                                                    
                                                                                                    
                                                                                                    
                                                                                                    
                                                                                                    
                                                                                                    
                                                                                                    
                                                                                                    
                                                                                                    
                                                                                                    
                           
<?xpacket end="w"?></metadata>
<defs>
    <style>
      .cls-1 {
        fill: #292929;
        fill-rule: evenodd;
      }
    </style>
  </defs>
  <path id="Фигура_564" data-name="Фигура 564" class="cls-1" d="M40.822,822.269q1.516,0,3.038-.007l4.244,2.921,0.012,0.007,2.213,0.14a0.643,0.643,0,0,0,.479-0.171,0.6,0.6,0,0,0,.192-0.44v-0.046a0.619,0.619,0,0,0-.607-0.612c-0.671-.022-1.325-0.054-2-0.1l-3.953-2.827-0.357-.117-0.016,0c-2.384,0-4.807-.007-7.15-0.015s-4.767-.015-7.152-0.015l-0.367.116-4.161,3.015-2.446.114a0.648,0.648,0,0,0-.628.64,0.631,0.631,0,0,0,.2.46,0.664,0.664,0,0,0,.5.179l2.65-.155h0.014l4.456-3.115c1.585,0,2.608.008,3.465,0.018l-2.88,2.975-0.48.5,0.555,0.407a4.764,4.764,0,0,0,2.643.846h0.057a4.715,4.715,0,0,0,3.38-1.632l3.288,0.033,8.409,8.478a1.08,1.08,0,0,1-.163,1.308,1.282,1.282,0,0,1-.741.347,1.1,1.1,0,0,1-.624-0.1l-4.569-4.741-0.918.851,4.141,4.193a1.4,1.4,0,0,1,.4,1.2,1.01,1.01,0,0,1-.592.764,1.657,1.657,0,0,1-1.306-.215l-4.583-4.719-0.922.843,3.96,4.08a1.192,1.192,0,0,1,.127.676,1.148,1.148,0,0,1-1.147.963H41.457a1.933,1.933,0,0,1-1.2-.675c-0.073-.069-0.144-0.134-0.21-0.192L36.68,835a2.453,2.453,0,0,0,.458-1.368,2.389,2.389,0,0,0-2.383-2.356,2.307,2.307,0,0,0-1.315.344,2.464,2.464,0,0,0-2.258-1.562H31.1a2.286,2.286,0,0,0-1.649.677l-0.658.645a2.431,2.431,0,0,0-2.305-1.707H26.411a2.3,2.3,0,0,0-1.614.64c-0.3.3-.611,0.618-0.907,0.923-0.142.146-.283,0.292-0.425,0.436a2.452,2.452,0,0,0-.713,1.669v0.016H22.618a0.608,0.608,0,1,0,0,1.215h0.476a2.545,2.545,0,0,0,2.009,1.116,2.641,2.641,0,0,0-.02.265,2.371,2.371,0,0,0,2.391,2.374,1.98,1.98,0,0,0,.293-0.009c0,0.043,0,.086,0,0.129a2.385,2.385,0,0,0,2.383,2.351,2.2,2.2,0,0,0,.3-0.009,2.71,2.71,0,0,0,.735,1.545,2.558,2.558,0,0,0,1.658.667h0.046a2.419,2.419,0,0,0,1.649-.646l1.374-1.321,0.81,0.832a2.308,2.308,0,0,0,1.629.64h0.063a2.566,2.566,0,0,0,1.654-.664l0.047-.038,0.061-.059h0a2.185,2.185,0,0,0,.6-1.21l0.012-.077a2.326,2.326,0,0,0,.729.088,2.451,2.451,0,0,0,2.313-1.734,2.26,2.26,0,0,0,.575.166l0.089,0.013a2.579,2.579,0,0,0,2.1-.719,2.215,2.215,0,0,0,.654-1.513,2.317,2.317,0,0,0,.4-0.013,2.546,2.546,0,0,0,1.494-.7,2.218,2.218,0,0,0,.678-1.652v0h0.555a0.633,0.633,0,0,0,.451-0.184A0.6,0.6,0,0,0,51,833.775a0.623,0.623,0,0,0-.627-0.612l-0.911,0-0.037-.038a2.8,2.8,0,0,0-.242-0.313h0.006l-6-6.152-2.568-2.522-0.015-.014h-4.47l-0.191.214a3.31,3.31,0,0,1-3.906,1.166l3.126-3.233C37.048,822.283,38.964,822.277,40.822,822.269ZM32.9,841.777H32.867a1.263,1.263,0,0,1-.818-0.327l-0.035-.033a1.041,1.041,0,0,1-.314-0.778,1.133,1.133,0,0,1,.113-0.459c0.434-.414.867-0.863,1.285-1.3,0.192-.2.382-0.394,0.57-0.587a1.049,1.049,0,0,1,.73-0.278h0.028l0.023,0a1.117,1.117,0,0,1,.786,1.935c-0.164.158-.334,0.329-0.507,0.5-0.384.385-.782,0.784-1.165,1.1A1.034,1.034,0,0,1,32.9,841.777Zm2.956-8.176a1.3,1.3,0,0,1-.373.856l-4.667,4.933,0,0a1.048,1.048,0,0,1-.6.179H30.176a1.124,1.124,0,0,1-1.151-1.1,1.31,1.31,0,0,1,.369-0.864c0.572-.61,4.514-4.792,4.553-4.832a1.032,1.032,0,0,1,.724-0.283,1.266,1.266,0,0,1,.5.105A1.083,1.083,0,0,1,35.858,833.6Zm2.5,7.681a2.9,2.9,0,0,1-1.535-1.082c-0.056-.058-0.106-0.113-0.153-0.159a2.36,2.36,0,0,0,.187-0.853,2.155,2.155,0,0,0-1.9-2.341l0.878-.929,3.325,3.408a1.243,1.243,0,0,1,.366.844,1.148,1.148,0,0,1-1.155,1.112H38.357ZM31.1,831.274h0.031a1.263,1.263,0,0,1,.817.327l0.035,0.033a1.032,1.032,0,0,1,.3.749,1.175,1.175,0,0,1-.087.423l-3.933,4.012a1.038,1.038,0,0,1-.729.281H27.5a1.149,1.149,0,0,1-1.161-1.123,1.18,1.18,0,0,1,.346-0.807,30.255,30.255,0,0,0,2.375-2.291c0.415-.43.844-0.874,1.279-1.3A1.041,1.041,0,0,1,31.1,831.274Zm-7.089,2.071a1.228,1.228,0,0,1,.365-0.836l0.436-.449c0.285-.294.581-0.6,0.874-0.891a1.044,1.044,0,0,1,.728-0.277h0.033a1.15,1.15,0,0,1,1.158,1.115,1.228,1.228,0,0,1-.365.836l-1.078,1.1-0.3.3a1.048,1.048,0,0,1-.657.222H25.17A1.15,1.15,0,0,1,24.011,833.345Z" transform="translate(-22 -821)"/>
</svg>
