<svg xmlns="http://www.w3.org/2000/svg" width="33" height="20" viewBox="0 0 33 20">
  <metadata><?xpacket begin="﻿" id="W5M0MpCehiHzreSzNTczkc9d"?>
<x:xmpmeta xmlns:x="adobe:ns:meta/" x:xmptk="Adobe XMP Core 5.6-c142 79.160924, 2017/07/13-01:06:39        ">
   <rdf:RDF xmlns:rdf="http://www.w3.org/1999/02/22-rdf-syntax-ns#">
      <rdf:Description rdf:about=""/>
   </rdf:RDF>
</x:xmpmeta>
                                                                                                    
                                                                                                    
                                                                                                    
                                                                                                    
                                                                                                    
                                                                                                    
                                                                                                    
                                                                                                    
                                                                                                    
                                                                                                    
                                                                                                    
                                                                                                    
                                                                                                    
                                                                                                    
                                                                                                    
                                                                                                    
                                                                                                    
                                                                                                    
                                                                                                    
                                                                                                    
                           
<?xpacket end="w"?></metadata>
<defs>
    <style>
      .cls-1 {
        fill: #292929;
        fill-rule: evenodd;
      }
    </style>
  </defs>
  <path id="Фигура_565" data-name="Фигура 565" class="cls-1" d="M53,924.383a0.584,0.584,0,0,0-.017-0.081,0.374,0.374,0,0,0-.018-0.053l-0.919-3.483a0.734,0.734,0,0,0-.683-0.451H42.487v-2.154a0.6,0.6,0,0,0-.058-0.267l-0.905-3.444A0.729,0.729,0,0,0,40.842,914H32.156a0.732,0.732,0,0,0-.688.467l-0.914,3.461-0.027.089c0,0.018-.007.035-0.012,0.072s0,0.048,0,.076v4.475H21.639a0.735,0.735,0,0,0-.688.467l-0.912,3.459a0.623,0.623,0,0,0-.025.079,0.706,0.706,0,0,0-.015.082,0.644,0.644,0,0,0,0,.079V933.3a0.714,0.714,0,0,0,.73.7H52.273a0.714,0.714,0,0,0,.73-0.7v-8.82A0.714,0.714,0,0,0,53,924.383Zm-1.453.792V932.6H42.487v-7.426h9.057Zm-9.056-1.393v-2.074h8.346l0.421,2.074H42.487ZM32.26,917.464l0.42-2.074h7.637l0.421,2.074H32.26Zm8.767,1.393V932.6H31.97V918.857h9.057ZM30.51,927.5v5.1H21.453v-5.1H30.51Zm0-3.467v2.074H21.743l0.421-2.074H30.51Z" transform="translate(-20 -914)"/>
</svg>
