<svg xmlns="http://www.w3.org/2000/svg" width="29" height="26" viewBox="0 0 29 26">
  <metadata><?xpacket begin="﻿" id="W5M0MpCehiHzreSzNTczkc9d"?>
<x:xmpmeta xmlns:x="adobe:ns:meta/" x:xmptk="Adobe XMP Core 5.6-c142 79.160924, 2017/07/13-01:06:39        ">
   <rdf:RDF xmlns:rdf="http://www.w3.org/1999/02/22-rdf-syntax-ns#">
      <rdf:Description rdf:about=""/>
   </rdf:RDF>
</x:xmpmeta>
                                                                                                    
                                                                                                    
                                                                                                    
                                                                                                    
                                                                                                    
                                                                                                    
                                                                                                    
                                                                                                    
                                                                                                    
                                                                                                    
                                                                                                    
                                                                                                    
                                                                                                    
                                                                                                    
                                                                                                    
                                                                                                    
                                                                                                    
                                                                                                    
                                                                                                    
                                                                                                    
                           
<?xpacket end="w"?></metadata>
<defs>
    <style>
      .cls-1 {
        fill: #292929;
        fill-rule: evenodd;
      }
    </style>
  </defs>
  <path id="Фигура_568" data-name="Фигура 568" class="cls-1" d="M50.066,1055H39.138a3.947,3.947,0,0,0-3.938,3.96v1.5a1.367,1.367,0,0,0-1.074.96,0.5,0.5,0,0,0-.023.1l-0.18,1.31a3.819,3.819,0,0,1-.329,1.1l-1.764,3.73a1.957,1.957,0,0,1-1.288,1.13,1.341,1.341,0,0,0-1.359-1.27H26.37a1.339,1.339,0,0,0-1.37,1.32h0v10.83a1.35,1.35,0,0,0,1.359,1.33h2.813a1.345,1.345,0,0,0,1.361-1.33v-0.17l0.588,0.36a4.647,4.647,0,0,0,2.408.67h4.7a3.193,3.193,0,0,0,3.055-2.22l2.051-6.26a3.235,3.235,0,0,0-2.048-4.07,3.149,3.149,0,0,0-.608-0.13c-1.35-.17-2.582-0.27-3.418-0.29a4.51,4.51,0,0,1,.138-1.41,3.889,3.889,0,0,0,1.738.41h3.7a6.488,6.488,0,0,0,3.136,3.23,1.233,1.233,0,0,0,1.659-.55,1.25,1.25,0,0,0,.063-0.97,3.614,3.614,0,0,1-.138-1.7h2.506A3.947,3.947,0,0,0,54,1062.61v-3.64a3.946,3.946,0,0,0-3.93-3.97H50.066Zm-20.923,24.58H26.406v-10.65h2.737v10.65ZM40.5,1069.26a1.8,1.8,0,0,1,1.565,2.02,1.865,1.865,0,0,1-.077.34l-2.048,6.26a1.8,1.8,0,0,1-1.707,1.24h-4.7a3.243,3.243,0,0,1-1.688-.47l-1.311-.79v-7.62H30.6a3.371,3.371,0,0,0,2.512-1.98l1.736-3.72a5.209,5.209,0,0,0,.45-1.52l0.16-1.15a1.417,1.417,0,0,1,.909.6,2.735,2.735,0,0,1,0,2.2,6.71,6.71,0,0,0-.436,3.37,1.2,1.2,0,0,0,1.167.94h0A29.933,29.933,0,0,1,40.5,1069.26ZM52.6,1062.6a2.538,2.538,0,0,1-2.532,2.54H46.991a0.7,0.7,0,0,0-.678.52,5.281,5.281,0,0,0-.067,2.66,4.857,4.857,0,0,1-2.25-2.68,0.7,0.7,0,0,0-.672-0.5H39.138a2.479,2.479,0,0,1-1.347-.39,3.719,3.719,0,0,0-.231-3.01,2.649,2.649,0,0,0-.962-0.93v-1.84a2.54,2.54,0,0,1,2.532-2.55H50.066a2.54,2.54,0,0,1,2.532,2.55v3.63Zm-11.376-2.04H39.97a0.705,0.705,0,0,0,0,1.41h1.252A0.705,0.705,0,0,0,41.222,1060.56Zm4,0H43.97a0.705,0.705,0,0,0,0,1.41h1.252A0.705,0.705,0,0,0,45.222,1060.56Zm4,0H47.97a0.705,0.705,0,0,0,0,1.41h1.252A0.705,0.705,0,0,0,49.222,1060.56Z" transform="translate(-25 -1055)"/>
</svg>
