<svg xmlns="http://www.w3.org/2000/svg" width="27" height="23" viewBox="0 0 27 23">
  <metadata><?xpacket begin="﻿" id="W5M0MpCehiHzreSzNTczkc9d"?>
<x:xmpmeta xmlns:x="adobe:ns:meta/" x:xmptk="Adobe XMP Core 5.6-c142 79.160924, 2017/07/13-01:06:39        ">
   <rdf:RDF xmlns:rdf="http://www.w3.org/1999/02/22-rdf-syntax-ns#">
      <rdf:Description rdf:about=""/>
   </rdf:RDF>
</x:xmpmeta>
                                                                                                    
                                                                                                    
                                                                                                    
                                                                                                    
                                                                                                    
                                                                                                    
                                                                                                    
                                                                                                    
                                                                                                    
                                                                                                    
                                                                                                    
                                                                                                    
                                                                                                    
                                                                                                    
                                                                                                    
                                                                                                    
                                                                                                    
                                                                                                    
                                                                                                    
                                                                                                    
                           
<?xpacket end="w"?></metadata>
<defs>
    <style>
      .cls-1 {
        fill: #292929;
        fill-rule: evenodd;
      }
    </style>
  </defs>
  <path id="Фигура_566" data-name="Фигура 566" class="cls-1" d="M37.471,961a0.627,0.627,0,0,0-.3.1l-11.352,6.943a0.6,0.6,0,0,0-.288.52v1.523a0.609,0.609,0,0,0,.614.605h1.841v8.476H26.148a0.55,0.55,0,0,0-.057,0,0.608,0.608,0,0,0-.556.6v0.908h-0.92a0.61,0.61,0,0,0-.614.606v2.118a0.61,0.61,0,0,0,.614.606H50.386A0.61,0.61,0,0,0,51,983.394v-2.118a0.61,0.61,0,0,0-.614-0.606h-0.92v-0.908a0.61,0.61,0,0,0-.614-0.6H47.011v-8.476h1.841a0.61,0.61,0,0,0,.614-0.605v-1.523a0.6,0.6,0,0,0-.288-0.52L37.826,961.09A0.617,0.617,0,0,0,37.471,961ZM37.5,962.31l10.739,6.574v0.587H26.761v-0.587Zm0,1.409a2.119,2.119,0,1,0,2.148,2.119A2.143,2.143,0,0,0,37.5,963.719Zm0,1.211a0.908,0.908,0,1,1-.92.908A0.905,0.905,0,0,1,37.5,964.93Zm-8.284,5.751h1.227v8.476H29.216v-8.476Zm2.455,0h3.989v8.476H31.67v-8.476Zm5.216,0h1.227v8.476H36.886v-8.476Zm2.455,0h3.989v8.476H39.341v-8.476Zm5.216,0h1.227v8.476H44.557v-8.476Zm-17.8,9.687H48.239v0.908a0.609,0.609,0,0,0,.614.605h0.92v0.908H25.227v-0.908h0.92a0.61,0.61,0,0,0,.614-0.605v-0.908Z" transform="translate(-24 -961)"/>
</svg>
