<svg xmlns="http://www.w3.org/2000/svg" width="20" height="25" viewBox="0 0 20 25">
  <metadata><?xpacket begin="﻿" id="W5M0MpCehiHzreSzNTczkc9d"?>
<x:xmpmeta xmlns:x="adobe:ns:meta/" x:xmptk="Adobe XMP Core 5.6-c142 79.160924, 2017/07/13-01:06:39        ">
   <rdf:RDF xmlns:rdf="http://www.w3.org/1999/02/22-rdf-syntax-ns#">
      <rdf:Description rdf:about=""/>
   </rdf:RDF>
</x:xmpmeta>
                                                                                                    
                                                                                                    
                                                                                                    
                                                                                                    
                                                                                                    
                                                                                                    
                                                                                                    
                                                                                                    
                                                                                                    
                                                                                                    
                                                                                                    
                                                                                                    
                                                                                                    
                                                                                                    
                                                                                                    
                                                                                                    
                                                                                                    
                                                                                                    
                                                                                                    
                                                                                                    
                           
<?xpacket end="w"?></metadata>
<defs>
    <style>
      .cls-1 {
        fill: #292929;
        fill-rule: evenodd;
      }
    </style>
  </defs>
  <path id="Фигура_567" data-name="Фигура 567" class="cls-1" d="M47.237,1021.31a0.76,0.76,0,0,0,.764-0.75v-4.68a0.764,0.764,0,0,0-1.528,0v3.92H45.455v-10.43a3.4,3.4,0,0,0-3.422-3.37H33.957a3.394,3.394,0,0,0-3.417,3.37v10.43H29.521v-3.92a0.764,0.764,0,0,0-1.527,0v4.68a0.76,0.76,0,0,0,.764.75h1.894a3.408,3.408,0,0,0,3.3,2.59h3.274v1.56l-5.271,1.41a0.751,0.751,0,0,0-.54.92,0.765,0.765,0,0,0,.937.53l4.919-1.3v0.74a0.764,0.764,0,0,0,1.528,0v-0.67l4.649,1.23a0.765,0.765,0,0,0,.937-0.53,0.75,0.75,0,0,0-.54-0.92l-5.092-1.35v-1.62h3.274a3.421,3.421,0,0,0,3.33-2.62Zm-5.2,1.08H33.957a1.863,1.863,0,1,1-.2-3.72h8.273a1.863,1.863,0,1,1,.2,3.72A0.646,0.646,0,0,1,42.033,1022.39Zm1.894-4.65a3.441,3.441,0,0,0-1.894-.57H33.957a3.441,3.441,0,0,0-1.894.57v-8.37a1.884,1.884,0,0,1,1.894-1.87h8.076a1.884,1.884,0,0,1,1.894,1.87h0v8.37Zm-3.875-7H35.688a0.755,0.755,0,1,0,0,1.51h4.364A0.755,0.755,0,1,0,40.052,1010.74Zm0,3.73H35.688a0.75,0.75,0,1,0,0,1.5h4.364A0.75,0.75,0,1,0,40.052,1014.47Zm-7.75,14.52a1.005,1.005,0,1,1-1.018,1.01A1.013,1.013,0,0,1,32.3,1028.99Zm5.759,0a1.005,1.005,0,1,1-1.019,1.01A1.013,1.013,0,0,1,38.061,1028.99Zm5.759,0A1.005,1.005,0,1,1,42.8,1030,1.013,1.013,0,0,1,43.82,1028.99Z" transform="translate(-28 -1006)"/>
</svg>
